# xmcd
#
# Track frame offsets:
#	150
#	21666
#	43815
#	72445
#	99377
#	119649
#	146008
#	170291
#	199803
#	224074
#	246443
#	265765
#	284962
#	311868
#	339973
#
# Disc length: 4722 seconds
#
# Revision: 1
# Processed by: cddbd v1.5.2PL0 Copyright (c) Steve Scherf et al.
# Submitted via: audiograbber 1.83.01
#
DISCID=0112700f
DTITLE=Larry Garner - A Driving Women
DYEAR=1994
DGENRE=Blues
TTITLE0=Larry Garner - Driving Woman
TTITLE1=Larry Garner - A Real Gambling Woman
TTITLE2=Larry Garner - Airline Blues 
TTITLE3=Larry Garner - Blues Pay My Way 
TTITLE4=Larry Garner - Born To Sang The Blues
TTITLE5=Larry Garner - Broke Bluesman
TTITLE6=Larry Garner - Cold Chills
TTITLE7=Larry Garner - Crazy World 
TTITLE8=Larry Garner - Dog House Blues
TTITLE9=Larry Garner - Don't Run Talking
TTITLE10=Larry Garner - Don't Start Crying
TTITLE11=Larry Garner - Don't Start To Cry
TTITLE12=Larry Garner - Go To Baton Rouge 
TTITLE13=Larry Garner - High on Music 
TTITLE14=Larry Garner - I Won't Tell Your Mama
EXTD=
EXTT0=
EXTT1=
EXTT2=
EXTT3=
EXTT4=
EXTT5=
EXTT6=
EXTT7=
EXTT8=
EXTT9=
EXTT10=
EXTT11=
EXTT12=
EXTT13=
EXTT14=
PLAYORDER=
